<?xml version="1.0" standalone="no"?>
<!DOCTYPE svg PUBLIC "-//W3C//DTD SVG 20010904//EN"
 "http://www.w3.org/TR/2001/REC-SVG-20010904/DTD/svg10.dtd">
<svg version="1.0" xmlns="http://www.w3.org/2000/svg"
 width="256.000000pt" height="256.000000pt" viewBox="0 0 256.000000 256.000000"
 preserveAspectRatio="xMidYMid meet">
<metadata>
Created by potrace 1.16, written by Peter Selinger 2001-2019
</metadata>
<g transform="translate(0.000000,256.000000) scale(0.100000,-0.100000)"
fill="#ffffff" stroke="none">
<path d="M1440 2265 c0 -23 -3 -25 -50 -25 l-50 0 0 -50 c0 -47 2 -50 25 -50
21 0 25 -5 25 -30 l0 -30 160 0 160 0 0 -110 0 -110 -25 0 -25 0 0 -185 0
-185 -30 0 -30 0 0 -185 0 -185 -25 0 -25 0 0 -190 0 -190 -25 0 -25 0 0 -130
0 -130 -160 0 -160 0 0 -30 c0 -27 -3 -30 -30 -30 -29 0 -30 -1 -30 -50 0 -49
1 -50 30 -50 25 0 30 -4 30 -25 l0 -25 370 0 370 0 0 25 c0 23 3 25 50 25 l50
0 0 50 c0 47 -2 50 -25 50 -21 0 -25 5 -25 30 l0 30 -160 0 -160 0 0 110 0
110 25 0 25 0 0 185 0 185 30 0 30 0 0 185 0 185 25 0 25 0 0 190 0 190 25 0
25 0 0 130 0 130 160 0 160 0 0 30 c0 27 3 30 30 30 29 0 30 1 30 50 0 49 -1
50 -30 50 -25 0 -30 4 -30 25 l0 25 -370 0 -370 0 0 -25z M540 1705 c0 -54 0
-55 -30 -55 l-30 0 0 -185 0 -185 -25 0 -25 0 0 -210 0 -210 50 0 c47 0 50 2
50 25 0 20 5 25 25 25 l25 0 0 160 0 160 30 0 30 0 0 185 0 185 25 0 c25 0 25
1 25 80 l0 80 -75 0 -75 0 0 -55z M1070 1730 c0 -25 -4 -30 -25 -30 l-25 0 0
-160 0 -160 -30 0 -30 0 0 -185 0 -185 -25 0 c-24 0 -25 -2 -25 -75 l0 -75 75
0 75 0 0 50 c0 49 1 50 30 50 l30 0 0 190 0 190 25 0 25 0 0 210 0 210 -50 0
c-49 0 -50 -1 -50 -30z"/>
</g>
</svg>
